P3
20 20 
255
0 0 0
12 0 0
25 0 0
38 0 0
51 0 0
63 0 0
76 0 0
89 0 0
102 0 0
115 0 0
127 0 0
140 0 0
153 0 0
166 0 0
179 0 0
191 0 0
204 0 0
217 0 0
230 0 0
243 0 0
0 12 0
12 12 0
25 12 0
38 12 0
51 12 0
63 12 0
76 12 0
89 12 0
102 12 0
115 12 0
127 12 0
140 12 0
153 12 0
166 12 0
179 12 0
191 12 0
204 12 0
217 12 0
230 12 0
243 12 0
0 25 0
12 25 0
25 25 0
38 25 0
51 25 0
63 25 0
76 25 0
89 25 0
102 25 0
115 25 0
127 25 0
140 25 0
153 25 0
166 25 0
179 25 0
191 25 0
204 25 0
217 25 0
230 25 0
243 25 0
0 38 0
12 38 0
25 38 0
38 38 0
51 38 0
63 38 0
76 38 0
89 38 0
102 38 0
115 38 0
127 38 0
140 38 0
153 38 0
166 38 0
179 38 0
191 38 0
204 38 0
217 38 0
230 38 0
243 38 0
0 51 0
12 51 0
25 51 0
38 51 0
51 51 0
63 51 0
76 51 0
89 51 0
102 51 0
115 51 0
127 51 0
140 51 0
153 51 0
166 51 0
179 51 0
191 51 0
204 51 0
217 51 0
230 51 0
243 51 0
0 63 0
12 63 0
25 63 0
38 63 0
51 63 0
63 63 0
76 63 0
89 63 0
102 63 0
115 63 0
127 63 0
140 63 0
153 63 0
166 63 0
179 63 0
191 63 0
204 63 0
217 63 0
230 63 0
243 63 0
0 76 0
12 76 0
25 76 0
38 76 0
51 76 0
63 76 0
76 76 0
89 76 0
102 76 0
115 76 0
127 76 0
140 76 0
153 76 0
166 76 0
179 76 0
191 76 0
204 76 0
217 76 0
230 76 0
243 76 0
0 89 0
12 89 0
25 89 0
38 89 0
51 89 0
63 89 0
76 89 0
89 89 0
102 89 0
115 89 0
127 89 0
140 89 0
153 89 0
166 89 0
179 89 0
191 89 0
204 89 0
217 89 0
230 89 0
243 89 0
0 102 0
12 102 0
25 102 0
38 102 0
51 102 0
63 102 0
76 102 0
89 102 0
102 102 0
115 102 0
127 102 0
140 102 0
153 102 0
166 102 0
179 102 0
191 102 0
204 102 0
217 102 0
230 102 0
243 102 0
0 115 0
12 115 0
25 115 0
38 115 0
51 115 0
63 115 0
76 115 0
89 115 0
102 115 0
115 115 0
127 115 0
140 115 0
153 115 0
166 115 0
179 115 0
191 115 0
204 115 0
217 115 0
230 115 0
243 115 0
0 127 0
12 127 0
25 127 0
38 127 0
51 127 0
63 127 0
76 127 0
89 127 0
102 127 0
115 127 0
127 127 0
140 127 0
153 127 0
166 127 0
179 127 0
191 127 0
204 127 0
217 127 0
230 127 0
243 127 0
0 140 0
12 140 0
25 140 0
38 140 0
51 140 0
63 140 0
76 140 0
89 140 0
102 140 0
115 140 0
127 140 0
140 140 0
153 140 0
166 140 0
179 140 0
191 140 0
204 140 0
217 140 0
230 140 0
243 140 0
0 153 0
12 153 0
25 153 0
38 153 0
51 153 0
63 153 0
76 153 0
89 153 0
102 153 0
115 153 0
127 153 0
140 153 0
153 153 0
166 153 0
179 153 0
191 153 0
204 153 0
217 153 0
230 153 0
243 153 0
0 166 0
12 166 0
25 166 0
38 166 0
51 166 0
63 166 0
76 166 0
89 166 0
102 166 0
115 166 0
127 166 0
140 166 0
153 166 0
166 166 0
179 166 0
191 166 0
204 166 0
217 166 0
230 166 0
243 166 0
0 179 0
12 179 0
25 179 0
38 179 0
51 179 0
63 179 0
76 179 0
89 179 0
102 179 0
115 179 0
127 179 0
140 179 0
153 179 0
166 179 0
179 179 0
191 179 0
204 179 0
217 179 0
230 179 0
243 179 0
0 191 0
12 191 0
25 191 0
38 191 0
51 191 0
63 191 0
76 191 0
89 191 0
102 191 0
115 191 0
127 191 0
140 191 0
153 191 0
166 191 0
179 191 0
191 191 0
204 191 0
217 191 0
230 191 0
243 191 0
0 204 0
12 204 0
25 204 0
38 204 0
51 204 0
63 204 0
76 204 0
89 204 0
102 204 0
115 204 0
127 204 0
140 204 0
153 204 0
166 204 0
179 204 0
191 204 0
204 204 0
217 204 0
230 204 0
243 204 0
0 217 0
12 217 0
25 217 0
38 217 0
51 217 0
63 217 0
76 217 0
89 217 0
102 217 0
115 217 0
127 217 0
140 217 0
153 217 0
166 217 0
179 217 0
191 217 0
204 217 0
217 217 0
230 217 0
243 217 0
0 230 0
12 230 0
25 230 0
38 230 0
51 230 0
63 230 0
76 230 0
89 230 0
102 230 0
115 230 0
127 230 0
140 230 0
153 230 0
166 230 0
179 230 0
191 230 0
204 230 0
217 230 0
230 230 0
243 230 0
0 243 0
12 243 0
25 243 0
38 243 0
51 243 0
63 243 0
76 243 0
89 243 0
102 243 0
115 243 0
127 243 0
140 243 0
153 243 0
166 243 0
179 243 0
191 243 0
204 243 0
217 243 0
230 243 0
243 243 0
